<svg xmlns="http://www.w3.org/2000/svg" viewBox="0 0 575 578.89"><title>shutterstock_695668813 [Converted]</title><path d="M522.53,676.85V590.53A54.53,54.53,0,0,0,468,536h0a7.86,7.86,0,0,0-7.86,7.86V776.93s49.07,30.8,57.37,33.63,105.09,23.27,121.55,12.27,48.61-70.28,50-77.37-127.68-7.65-140.28-5-15,4.53-12.61-4.44,7-22.3,1.77-32.78A257.64,257.64,0,0,0,522.53,676.85Z" transform="translate(-312.5 -309.62)" fill="#fff"/><path d="M739.85,781.94a5,5,0,0,1-3.12-8.94c4-3.14,7.86-6.45,11.59-9.86a5,5,0,0,1,6.75,7.41c-3.9,3.56-8,7-12.11,10.3A5,5,0,0,1,739.85,781.94Z" transform="translate(-312.5 -309.62)" fill="#9ac3ed"/><path d="M775.74,746.27a5,5,0,0,1-3.9-8.15,219.63,219.63,0,0,0,34.37-60.19,5,5,0,1,1,9.38,3.53,229.64,229.64,0,0,1-35.93,62.94A5,5,0,0,1,775.74,746.27Z" transform="translate(-312.5 -309.62)" fill="#9ac3ed"/><path d="M824.57,623.44l-.4,0a5,5,0,0,1-4.6-5.39c.47-5.86.7-11.83.7-17.74v-.94a5,5,0,0,1,5-5h0a5,5,0,0,1,5,5v1c0,6.18-.25,12.41-.74,18.54A5,5,0,0,1,824.57,623.44Z" transform="translate(-312.5 -309.62)" fill="#9ac3ed"/><path d="M822.72,571.24a5,5,0,0,1-4.95-4.26,218.57,218.57,0,0,0-20.29-64.38,5,5,0,1,1,9-4.45,228.57,228.57,0,0,1,21.22,67.32,5,5,0,0,1-5,5.76Z" transform="translate(-312.5 -309.62)" fill="#9ac3ed"/><path d="M744.6,432.55a5,5,0,0,1-3.22-1.17,220.6,220.6,0,0,0-46.28-29.83,5,5,0,1,1,4.33-9,230.64,230.64,0,0,1,48.39,31.18,5,5,0,0,1-3.22,8.85Z" transform="translate(-312.5 -309.62)" fill="#9ac3ed"/><path d="M472,419.86a5,5,0,0,1-2.85-9.13c5.08-3.51,10.36-6.86,15.7-9.94a5,5,0,0,1,5,8.68c-5.11,3-10.16,6.15-15,9.51A5,5,0,0,1,472,419.86Z" transform="translate(-312.5 -309.62)" fill="#9ac3ed"/><path d="M393.63,514.8a5,5,0,0,1-4.58-7,229.79,229.79,0,0,1,46.71-68.91,5,5,0,0,1,7.15,7,219.81,219.81,0,0,0-44.68,65.91A5,5,0,0,1,393.63,514.8Z" transform="translate(-312.5 -309.62)" fill="#9ac3ed"/><path d="M375.5,586.39l-.42,0A5,5,0,0,1,370.5,581c.43-5.17,1-10.38,1.81-15.48a5,5,0,0,1,9.91,1.5c-.74,4.88-1.32,9.87-1.74,14.81A5,5,0,0,1,375.5,586.39Z" transform="translate(-312.5 -309.62)" fill="#9ac3ed"/><path d="M388.48,683a5,5,0,0,1-4.7-3.28,229.42,229.42,0,0,1-13.86-69.47,5,5,0,1,1,10-.43,219.43,219.43,0,0,0,13.26,66.44,5,5,0,0,1-4.7,6.74Z" transform="translate(-312.5 -309.62)" fill="#9ac3ed"/><path d="M702.78,528.15a29.46,29.46,0,0,1-7.56-57.94L778.88,448A29.46,29.46,0,0,1,794,505l-83.66,22.19A29.42,29.42,0,0,1,702.78,528.15Zm83.65-71.09a19.4,19.4,0,0,0-5,.65l-83.66,22.19A19.46,19.46,0,0,0,684,503.67h0a19.46,19.46,0,0,0,23.77,13.81l83.66-22.19a19.44,19.44,0,0,0-5-38.23Z" transform="translate(-312.5 -309.62)" fill="#4492d4"/><path d="M404.15,353.61c-12.13,0-22-9.46-22-21.08s9.87-21.09,22-21.09,22,9.46,22,21.09S416.28,353.61,404.15,353.61Zm0-32.15c-6.6,0-12,5-12,11.06s5.37,11.06,12,11.06,12-5,12-11.06S410.75,321.46,404.15,321.46Z" transform="translate(-312.5 -309.62)" fill="#4492d4"/><path d="M812.35,888.51c-12.13,0-22-9.46-22-21.09s9.87-21.08,22-21.08,22,9.46,22,21.08S824.48,888.51,812.35,888.51Zm0-32.15c-6.6,0-12,5-12,11.06s5.37,11.06,12,11.06,12-5,12-11.06S819,856.36,812.35,856.36Z" transform="translate(-312.5 -309.62)" fill="#4492d4"/><path d="M363.61,402H335.1a5,5,0,0,1,0-10h28.51a5,5,0,0,1,0,10Z" transform="translate(-312.5 -309.62)" fill="#4492d4"/><path d="M349.36,416.29a5,5,0,0,1-5-5V382.78a5,5,0,1,1,10,0v28.51A5,5,0,0,1,349.36,416.29Z" transform="translate(-312.5 -309.62)" fill="#4492d4"/><path d="M872,801.31H843.53a5,5,0,0,1,0-10H872a5,5,0,0,1,0,10Z" transform="translate(-312.5 -309.62)" fill="#4492d4"/><path d="M857.78,815.57a5,5,0,0,1-5-5V782.05a5,5,0,1,1,10,0v28.51A5,5,0,0,1,857.78,815.57Z" transform="translate(-312.5 -309.62)" fill="#4492d4"/><path d="M530.08,714.17V394.35a26.28,26.28,0,0,1,26.28-26.28h-7.55a26.28,26.28,0,0,0-26.28,26.28V714.17a26.28,26.28,0,0,0,26.28,26.28h7.55A26.28,26.28,0,0,1,530.08,714.17Z" transform="translate(-312.5 -309.62)" fill="#fff"/><path d="M721.94,714.17V394.35a26.28,26.28,0,0,0-26.28-26.28H688.1a26.28,26.28,0,0,1,26.28,26.28V714.17a26.28,26.28,0,0,1-26.28,26.28h7.55A26.28,26.28,0,0,0,721.94,714.17Z" transform="translate(-312.5 -309.62)" fill="#72afeb"/><rect x="217.58" y="58.45" width="184.3" height="372.38" rx="26.28" ry="26.28" fill="#9ac3ed"/><path d="M695.65,745.46H548.82a31.33,31.33,0,0,1-31.29-31.29V394.35a31.33,31.33,0,0,1,31.29-31.29H695.65a31.33,31.33,0,0,1,31.29,31.29V714.17A31.33,31.33,0,0,1,695.65,745.46ZM548.82,373.08a21.3,21.3,0,0,0-21.27,21.27V714.17a21.3,21.3,0,0,0,21.27,21.27H695.65a21.3,21.3,0,0,0,21.27-21.27V394.35a21.3,21.3,0,0,0-21.27-21.27Z" transform="translate(-312.5 -309.62)" fill="#4492d4"/><path d="M700.22,692.7h-156a5.15,5.15,0,0,1-5-5.29V416.1a5.15,5.15,0,0,1,5-5.29h156a5.15,5.15,0,0,1,5,5.29V687.41A5.15,5.15,0,0,1,700.22,692.7Z" transform="translate(-312.5 -309.62)" fill="#fff"/><path d="M700.22,697.71h-156a10.17,10.17,0,0,1-10-10.3V416.1a10.17,10.17,0,0,1,10-10.3h156a10.17,10.17,0,0,1,10,10.3V687.41A10.17,10.17,0,0,1,700.22,697.71Zm-155.87-10H700.12a.47.47,0,0,0,.08-.28V416.1a.47.47,0,0,0-.08-.28H544.35a.47.47,0,0,0-.08.28V687.41A.47.47,0,0,0,544.35,687.69Z" transform="translate(-312.5 -309.62)" fill="#4492d4"/><path d="M604.44,393.44h0Z" transform="translate(-312.5 -309.62)" fill="#fff"/><path d="M644.65,398.45H604.44a5,5,0,0,1,0-10h40.21a5,5,0,0,1,0,10Z" transform="translate(-312.5 -309.62)" fill="#4492d4"/><path d="M590.17,393.44Z" transform="translate(-312.5 -309.62)" fill="#fff"/><path d="M590.17,398.46a5.05,5.05,0,0,1-3.54-1.47,4.58,4.58,0,0,1-.62-.76,4.75,4.75,0,0,1-.46-.86,4.45,4.45,0,0,1-.29-.94,4.81,4.81,0,0,1,0-2,4.64,4.64,0,0,1,.29-.94,4.75,4.75,0,0,1,.46-.86,5,5,0,0,1,8.33,0,5.47,5.47,0,0,1,.46.86,6.38,6.38,0,0,1,.29.94,5.34,5.34,0,0,1,0,2,6,6,0,0,1-.29.94,5.48,5.48,0,0,1-.46.86,4.58,4.58,0,0,1-.62.76A5.06,5.06,0,0,1,590.17,398.46Z" transform="translate(-312.5 -309.62)" fill="#4492d4"/><path d="M460.15,781.94a5,5,0,0,1-5-5V543.86A12.88,12.88,0,0,1,468,531a59.6,59.6,0,0,1,59.54,59.54v86.32a5,5,0,1,1-10,0V590.53A49.57,49.57,0,0,0,468,541a2.85,2.85,0,0,0-2.85,2.85V776.93A5,5,0,0,1,460.15,781.94Z" transform="translate(-312.5 -309.62)" fill="#4492d4"/><path d="M512.48,659.89a78.55,78.55,0,0,1,18.26,94.67h-25.2V659.89Z" transform="translate(-312.5 -309.62)" fill="#fff"/><path d="M530.73,759.57a5,5,0,0,1-4.46-7.29,72.69,72.69,0,0,0,8-33.34,73.52,73.52,0,0,0-25.08-55.29,5,5,0,0,1,6.6-7.54,83.54,83.54,0,0,1,28.5,62.83,82.62,82.62,0,0,1-9.07,37.89A5,5,0,0,1,530.73,759.57Z" transform="translate(-312.5 -309.62)" fill="#4492d4"/><path d="M493.6,590H460.15a5,5,0,0,1-5-5V551.51a5,5,0,0,1,5-5A38.5,38.5,0,0,1,498.61,585,5,5,0,0,1,493.6,590Zm-28.43-10h23a28.51,28.51,0,0,0-23-23Z" transform="translate(-312.5 -309.62)" fill="#4492d4"/><path d="M678.46,657.85h0a20.25,20.25,0,0,1,17.8-22.44l27.13-3.13a20.25,20.25,0,0,1,22.44,17.8h0A20.25,20.25,0,0,1,728,672.52l-27.13,3.13A20.25,20.25,0,0,1,678.46,657.85Z" transform="translate(-312.5 -309.62)" fill="#fff"/><path d="M698.53,680.79a25.27,25.27,0,0,1-25-22.37h0a25.29,25.29,0,0,1,22.2-28l27.13-3.13a25.26,25.26,0,0,1,5.79,50.19l-27.13,3.13A25.71,25.71,0,0,1,698.53,680.79Zm-15.09-23.52a15.24,15.24,0,0,0,16.89,13.4l27.13-3.13A15.24,15.24,0,1,0,724,637.26l-27.13,3.13a15.26,15.26,0,0,0-13.4,16.89Z" transform="translate(-312.5 -309.62)" fill="#4492d4"/><path d="M460.15,614.07h0Z" transform="translate(-312.5 -309.62)" fill="#fff"/><path d="M485.25,619.08H460.15a5,5,0,0,1,0-10h25.09a5,5,0,0,1,0,10Z" transform="translate(-312.5 -309.62)" fill="#4492d4"/><path d="M460.15,628.23h0Z" transform="translate(-312.5 -309.62)" fill="#fff"/><path d="M474.63,633.24H460.15a5,5,0,0,1,0-10h14.48a5,5,0,0,1,0,10Z" transform="translate(-312.5 -309.62)" fill="#4492d4"/><path d="M707,629.11a9,9,0,0,1-8.91-8l-.37-3.21a9,9,0,0,1,7.9-10l1.52-.18a9,9,0,0,1,10,7.9l.37,3.21a9,9,0,0,1-7.9,10l-1.52.18A9.1,9.1,0,0,1,707,629.11Zm1.18-16.35-.46,0-1.52.18h0a4,4,0,0,0-3.5,4.41l.37,3.21a4,4,0,0,0,4.41,3.5l1.52-.18a4,4,0,0,0,3.5-4.41l-.37-3.21a4,4,0,0,0-3.94-3.52ZM706,610.48h0Z" transform="translate(-312.5 -309.62)" fill="#4492d4"/><path d="M698.76,666.71a9.22,9.22,0,0,1-9.14-8.16l-.45-3.94a9.21,9.21,0,0,1,8.1-10.2h0l2.13-.25a9.21,9.21,0,0,1,10.21,8.1l.45,3.94a9.21,9.21,0,0,1-8.1,10.21l-2.13.25A9.27,9.27,0,0,1,698.76,666.71Zm-.93-17.33a4.2,4.2,0,0,0-3.69,4.65l.45,3.94a4.21,4.21,0,0,0,4.65,3.69l2.13-.25a4.2,4.2,0,0,0,3.69-4.65l-.45-3.94a4.2,4.2,0,0,0-4.65-3.69Z" transform="translate(-312.5 -309.62)" fill="#4492d4"/><path d="M638.7,826.16a5,5,0,0,1-3.28-8.8,161.11,161.11,0,0,0,48.31-73.44,5,5,0,0,1,9.56,3,171.12,171.12,0,0,1-51.31,78A5,5,0,0,1,638.7,826.16Z" transform="translate(-312.5 -309.62)" fill="#4492d4"/><path d="M709.31,581.41a12.54,12.54,0,0,1-12.43-11.1l-.27-2.33a12.55,12.55,0,0,1,11-13.89h0a12.55,12.55,0,0,1,13.89,11l.27,2.34a12.54,12.54,0,0,1-11,13.89A12.68,12.68,0,0,1,709.31,581.41Zm-1.11-22.35a7.54,7.54,0,0,0-6.62,8.34l.27,2.34a7.53,7.53,0,1,0,15-1.72l-.27-2.34a7.54,7.54,0,0,0-8.34-6.62Z" transform="translate(-312.5 -309.62)" fill="#4492d4"/><path d="M778.76,826.13a5.07,5.07,0,0,1-3.24-9,283.06,283.06,0,0,0,41.95-43,5.07,5.07,0,0,1,8,6.27A293.25,293.25,0,0,1,782,825,5.05,5.05,0,0,1,778.76,826.13Z" transform="translate(-312.5 -309.62)" fill="#9ac3ed"/><path d="M837.1,758.93a5,5,0,0,1-4.2-7.74c1.14-1.75,2.28-3.55,3.38-5.34a5,5,0,0,1,8.53,5.26c-1.14,1.85-2.32,3.71-3.5,5.53A5,5,0,0,1,837.1,758.93Z" transform="translate(-312.5 -309.62)" fill="#9ac3ed"/><path d="M840,755.81a5.07,5.07,0,0,1-4.31-7.74c2.74-4.44,5.39-9,7.88-13.6a5.07,5.07,0,1,1,8.92,4.84c-2.58,4.75-5.32,9.49-8.17,14.09A5.07,5.07,0,0,1,840,755.81Z" transform="translate(-312.5 -309.62)" fill="#9ac3ed"/><path d="M874.33,673.62a5.08,5.08,0,0,1-4.93-6.27,282.23,282.23,0,0,0,8-66.65c0-2.48,0-5-.1-7.46A5.07,5.07,0,0,1,887.4,593c.07,2.56.1,5.15.1,7.73a292.41,292.41,0,0,1-8.24,69.05A5.07,5.07,0,0,1,874.33,673.62Z" transform="translate(-312.5 -309.62)" fill="#9ac3ed"/><path d="M878.82,560.29a5.07,5.07,0,0,1-5-4.27c-.87-5.47-1.93-11-3.12-16.4a5.07,5.07,0,0,1,9.9-2.2c1.24,5.6,2.33,11.32,3.24,17a5.07,5.07,0,0,1-4.21,5.81A5.14,5.14,0,0,1,878.82,560.29Z" transform="translate(-312.5 -309.62)" fill="#9ac3ed"/><path d="M843,460.74a5.07,5.07,0,0,1-4.37-2.5,281.6,281.6,0,0,0-59-70.52,5.07,5.07,0,1,1,6.62-7.69,291.72,291.72,0,0,1,61.09,73.05,5.07,5.07,0,0,1-4.37,7.65Z" transform="translate(-312.5 -309.62)" fill="#9ac3ed"/><path d="M751.12,365.17a5.05,5.05,0,0,1-2.74-.81c-5.88-3.79-12-7.4-18.12-10.74a5.07,5.07,0,0,1,4.84-8.92c6.36,3.45,12.68,7.2,18.78,11.12a5.07,5.07,0,0,1-2.75,9.34Z" transform="translate(-312.5 -309.62)" fill="#9ac3ed"/><path d="M661.32,327.16a5.08,5.08,0,0,1-1.15-.13A283.72,283.72,0,0,0,547.77,324,5.07,5.07,0,1,1,546,314a293.85,293.85,0,0,1,116.43,3.18,5.07,5.07,0,0,1-1.14,10Z" transform="translate(-312.5 -309.62)" fill="#9ac3ed"/><path d="M482.42,343.39a5.07,5.07,0,0,1-2-9.73c7-3.06,14.3-5.88,21.56-8.37a5.07,5.07,0,1,1,3.29,9.6c-7,2.4-14,5.12-20.8,8.08A5.06,5.06,0,0,1,482.42,343.39Z" transform="translate(-312.5 -309.62)" fill="#9ac3ed"/><path d="M351.11,458.65a5.07,5.07,0,0,1-4.34-7.69,292.31,292.31,0,0,1,48.39-60.54,5.07,5.07,0,1,1,7,7.33,282.16,282.16,0,0,0-46.71,58.44A5.07,5.07,0,0,1,351.11,458.65Z" transform="translate(-312.5 -309.62)" fill="#9ac3ed"/><path d="M328.23,506.19a5.08,5.08,0,0,1-4.75-6.84c2.52-6.77,5.32-13.54,8.34-20.11a5.07,5.07,0,1,1,9.22,4.24c-2.92,6.34-5.62,12.87-8.05,19.41A5.08,5.08,0,0,1,328.23,506.19Z" transform="translate(-312.5 -309.62)" fill="#9ac3ed"/><path d="M318.87,633.24a5,5,0,0,1-5-4.52c-.92-9.38-1.39-18.94-1.39-28.42a289.52,289.52,0,0,1,6.06-59,5,5,0,0,1,9.81,2,279.47,279.47,0,0,0-5.84,56.93c0,9.15.45,18.39,1.34,27.44a5,5,0,0,1-4.5,5.48Z" transform="translate(-312.5 -309.62)" fill="#9ac3ed"/><path d="M329.3,686.32a5,5,0,0,1-4.8-3.58,286.75,286.75,0,0,1-7.13-29.5,5,5,0,1,1,9.85-1.83,276.67,276.67,0,0,0,6.88,28.46,5,5,0,0,1-4.8,6.45Z" transform="translate(-312.5 -309.62)" fill="#9ac3ed"/><path d="M429.55,830.6a5,5,0,0,1-3-1,290.51,290.51,0,0,1-80.75-94.91,5,5,0,1,1,8.86-4.69,280.41,280.41,0,0,0,77.95,91.61,5,5,0,0,1-3,9Z" transform="translate(-312.5 -309.62)" fill="#9ac3ed"/><path d="M476.22,859.3a5,5,0,0,1-2.19-.51c-7.48-3.65-14.9-7.68-22-12a5,5,0,0,1,5.17-8.59c6.89,4.15,14,8,21.27,11.56a5,5,0,0,1-2.2,9.51Z" transform="translate(-312.5 -309.62)" fill="#9ac3ed"/><path d="M600,887.79a290.37,290.37,0,0,1-48.71-4.11,5,5,0,0,1,1.69-9.88,280,280,0,0,0,117.49-5.06,5,5,0,1,1,2.54,9.69A288.43,288.43,0,0,1,600,887.79Z" transform="translate(-312.5 -309.62)" fill="#9ac3ed"/><path d="M705.21,867.55a5,5,0,0,1-1.87-9.66c6.81-2.73,13.6-5.78,20.18-9.06a5,5,0,1,1,4.47,9c-6.82,3.39-13.85,6.55-20.91,9.39A5,5,0,0,1,705.21,867.55Z" transform="translate(-312.5 -309.62)" fill="#9ac3ed"/><path d="M848.86,347.05a3.59,3.59,0,1,0,5.07-5.07l-4.68-4.68,4.68-4.68a3.59,3.59,0,1,0-5.07-5.07l-4.68,4.68-4.68-4.68a3.59,3.59,0,1,0-5.07,5.07l4.68,4.68L834.43,342a3.59,3.59,0,1,0,5.07,5.07l4.68-4.68Z" transform="translate(-312.5 -309.62)" fill="#4492d4"/><circle cx="309.74" cy="406.85" r="12.84" fill="#4492d4"/><circle cx="38.22" cy="522.21" r="6.25" fill="#4492d4"/><path d="M226.76,169.61H429.14a13.7,13.7,0,0,1,13.7,13.7V304.72a13.7,13.7,0,0,1-13.7,13.7H226.76a0,0,0,0,1,0,0V169.61A0,0,0,0,1,226.76,169.61Z" fill="#fff"/><path d="M598.5,511.46H543.45v-8H598.5a4,4,0,0,1,4,4h0A4,4,0,0,1,598.5,511.46Z" transform="translate(-312.5 -309.62)" fill="#9ac3ed"/><path d="M627.9,528.07H543.45v-8H627.9a4,4,0,0,1,4,4h0A4,4,0,0,1,627.9,528.07Z" transform="translate(-312.5 -309.62)" fill="#9ac3ed"/><path d="M731.12,633H539.26a5,5,0,0,1-5-5V479.23a5,5,0,0,1,5-5H731.12a29.26,29.26,0,0,1,29.23,29.23V603.82A29.26,29.26,0,0,1,731.12,633ZM544.27,623H731.12a19.23,19.23,0,0,0,19.21-19.21V503.44a19.23,19.23,0,0,0-19.21-19.21H544.27Z" transform="translate(-312.5 -309.62)" fill="#4492d4"/><path d="M711.56,604.82H691.7a3.51,3.51,0,0,1,0-7h19.86a3.51,3.51,0,0,1,0,7Z" transform="translate(-312.5 -309.62)" fill="#9ac3ed"/><path d="M671.48,604.82H651.62a3.51,3.51,0,0,1,0-7h19.86a3.51,3.51,0,0,1,0,7Z" transform="translate(-312.5 -309.62)" fill="#9ac3ed"/><path d="M630.68,604.82H610.82a3.51,3.51,0,0,1,0-7h19.86a3.51,3.51,0,0,1,0,7Z" transform="translate(-312.5 -309.62)" fill="#9ac3ed"/><path d="M588.78,604.82H568.93a3.51,3.51,0,0,1,0-7h19.86a3.51,3.51,0,0,1,0,7Z" transform="translate(-312.5 -309.62)" fill="#9ac3ed"/><rect x="356.91" y="193.82" width="39.89" height="24.62" rx="6.52" ry="6.52" fill="#9ac3ed"/><path d="M705.55,536.93H673.17a2,2,0,0,1,0-4h32.37a2,2,0,0,1,0,4Z" transform="translate(-312.5 -309.62)" fill="#9ac3ed"/><path d="M600,830.59a230,230,0,0,1-186.62-95.33,5,5,0,1,1,8.11-5.88,220.51,220.51,0,0,0,264.24,73.88,5,5,0,0,1,3.9,9.23A228.85,228.85,0,0,1,600,830.59Z" transform="translate(-312.5 -309.62)" fill="#4492d4"/></svg>